<svg width="1024" height="1024" viewBox="0 0 1024 1024" fill="none" xmlns="http://www.w3.org/2000/svg">
  <rect width="1024" height="1024" rx="224" fill="#F9FFFF"/>
  <path d="M320 704V320C320 289.1 345.1 264 376 264H394C424.9 264 450 289.1 450 320V450H574V320C574 289.1 599.1 264 630 264H648C678.9 264 704 289.1 704 320V704C704 734.9 678.9 760 648 760H630C599.1 760 574 734.9 574 704V574H450V704C450 734.9 424.9 760 394 760H376C345.1 760 320 734.9 320 704Z" fill="#004D40"/>
  <path d="M513 198C597 232 650 293 671 382C583 380 522 341 488 265C479 245 493 206 513 198Z" fill="#14A085"/>
  <path d="M512 826C428 792 375 731 354 642C442 644 503 683 537 759C546 779 532 818 512 826Z" fill="#14A085"/>
  <circle cx="684" cy="682" r="74" fill="#FFAB40"/>
  <circle cx="684" cy="682" r="26" fill="#F9FFFF"/>
</svg>
